<svg xmlns="http://www.w3.org/2000/svg" width="31.282" height="38.624" viewBox="0 0 31.282 38.624">
  <defs>
    <style>
      .cls-1 {
        fill: #23478e;
      }
    </style>
  </defs>
  <g id="XMLID_2_" transform="translate(-561.036 -155)">
    <g id="Сгруппировать_811" data-name="Сгруппировать 811" transform="translate(561.036 155)">
      <g id="Сгруппировать_810" data-name="Сгруппировать 810" transform="translate(0)">
        <path id="Контур_8639" data-name="Контур 8639" class="cls-1" d="M50.677,0A15.659,15.659,0,0,0,35.036,15.641a15.446,15.446,0,0,0,3.373,9.692c2.857,3.6,11.165,12.155,11.517,12.517l.751.773.751-.773c.352-.362,8.663-8.917,11.52-12.521a15.442,15.442,0,0,0,3.37-9.689A15.659,15.659,0,0,0,50.677,0Zm10.63,24.029c-2.3,2.9-8.478,9.353-10.63,11.585-2.152-2.232-8.327-8.682-10.627-11.582a13.371,13.371,0,0,1-2.919-8.39,13.546,13.546,0,1,1,27.092,0A13.367,13.367,0,0,1,61.307,24.029Z" transform="translate(-35.036)"/>
        <path id="Контур_8640" data-name="Контур 8640" class="cls-1" d="M105.218,59.265a9.259,9.259,0,1,0,9.259,9.259A9.269,9.269,0,0,0,105.218,59.265Z" transform="translate(-89.576 -53.056)"/>
      </g>
    </g>
  </g>
</svg>
