<svg xmlns="http://www.w3.org/2000/svg" xmlns:xlink="http://www.w3.org/1999/xlink" width="1925.318" height="1112.575" viewBox="0 0 1925.318 1112.575">
  <defs>
    <style>
      .cls-1, .cls-2, .cls-3, .cls-4, .cls-5, .cls-6 {
        stroke: rgba(255,196,0,0.36);
        stroke-width: 4px;
      }

      .cls-1 {
        fill: url(#linear-gradient);
      }

      .cls-2 {
        fill: url(#linear-gradient-2);
      }

      .cls-3 {
        fill: url(#linear-gradient-3);
      }

      .cls-4 {
        fill: url(#linear-gradient-4);
      }

      .cls-5 {
        fill: url(#linear-gradient-5);
      }

      .cls-6 {
        fill: url(#linear-gradient-6);
      }
    </style>
    <linearGradient id="linear-gradient" x1="0.5" x2="0.5" y2="1" gradientUnits="objectBoundingBox">
      <stop offset="0" stop-color="#dfdfdf"/>
      <stop offset="1" stop-color="#f2f2f2"/>
    </linearGradient>
    <linearGradient id="linear-gradient-2" x1="0.722" y1="0.689" x2="0.234" y2="0.764" gradientUnits="objectBoundingBox">
      <stop offset="0" stop-color="#f2f2f2"/>
      <stop offset="1" stop-color="#dfdfdf"/>
    </linearGradient>
    <linearGradient id="linear-gradient-3" x1="0.921" y1="0.766" x2="0.567" y2="0.762" xlink:href="#linear-gradient"/>
    <linearGradient id="linear-gradient-4" x1="0.5" y1="0.329" x2="0.707" y2="0.932" xlink:href="#linear-gradient-2"/>
    <linearGradient id="linear-gradient-5" x1="0.416" y1="0.303" x2="0.311" y2="0.926" xlink:href="#linear-gradient-2"/>
    <linearGradient id="linear-gradient-6" x1="0.432" y1="0.25" x2="0.5" y2="0.748" gradientUnits="objectBoundingBox">
      <stop offset="0" stop-color="#f2f2f2"/>
      <stop offset="1" stop-color="#dbdbdb"/>
    </linearGradient>
  </defs>
  <g id="Сгруппировать_841" data-name="Сгруппировать 841" transform="translate(2.818 -71.643)">
    <path id="Контур_8646" data-name="Контур 8646" class="cls-1" d="M-5434.2,4667.158s-131.446,33.277-136.437,63.227,4.991,103.161-18.3,129.782-68.218,59.9-74.874,106.488,1043.581,28.454,1060.885,0,209.814-112.812,289.846-149.583,129.782-24.124,129.782-86.687-43.26-56.073,0-84.193,56.238-51.913,67.054-8.652,25.957,80.867,25.957,29.618,0-59.9-10.815-105.324-15.141-110.314-15.141-110.314l-196.836-69.217-945.245-12.978s-279.031,75.707-270.379,82.2S-5434.2,4667.158-5434.2,4667.158Z" transform="translate(5861 -3813)"/>
    <path id="Вычитание_1" data-name="Вычитание 1" class="cls-2" d="M-13298.725,1208.085h0a47.907,47.907,0,0,1-11.243-1.3,44.084,44.084,0,0,1-9.7-3.6,48.275,48.275,0,0,1-8.325-5.442,60.074,60.074,0,0,1-7.1-6.827c-8.729-9.824-14.635-22.145-19.381-32.044l-.008-.018c-2.663-5.555-4.963-10.353-7.2-13.554-4.724-6.748-9.445-9.627-15.79-9.627a53.623,53.623,0,0,0-9.636,1.261,75.185,75.185,0,0,1-14.507,1.71c-2.183,0-5.394-2.285-9.544-6.792a170.152,170.152,0,0,1-13.775-17.906c-9.036-13.1-20.293-31.386-33.46-54.336-22.2-38.689-42.212-77.405-43.053-79.034-1.264-1.347-126.524-134.844-131.444-139.764a.383.383,0,0,1-.094-.31c.338-4.767,51.938-48.194,95.166-83.785,48.365-39.82,96.371-78.207,99.6-80.628,6.562-4.918,281.743-133.476,284.522-134.774l48.253-13.311.041.025c2.363,1.466,23.686,14.709,44.43,27.956V1134.6c-1.879,5.719-3.905,11.9-6.2,19.019-2.965,9.191-6.453,15.609-10.664,19.621a17.534,17.534,0,0,1-12.628,5.063c-5.257,0-10.869-1.88-16.3-3.7l-.066-.022c-5.458-1.829-11.1-3.719-16.458-3.719a18,18,0,0,0-12.1,4.387c-5.5,4.656-14.159,8.1-27.245,10.823-11.764,2.452-25.955,4.086-40.979,5.815-24.086,2.772-51.386,5.915-76.533,13.31A66.186,66.186,0,0,1-13298.725,1208.085Z" transform="translate(14981.486 -454.198)"/>
    <path id="Объединение_1" data-name="Объединение 1" class="cls-3" d="M-13242.59,1552.833c-24.76,0-44.609-.661-59-1.965a131.662,131.662,0,0,1-19.99-3.014c-5.186-1.347-8.082-2.984-8.613-4.865a3.167,3.167,0,0,1,.787-2.817,15.041,15.041,0,0,1,4.025-3.277c10.6-6.475,21.273-9.219,30.691-11.641,17.3-4.45,30.975-7.965,34.2-31.619a22.178,22.178,0,0,1,5.119-11.047,46.1,46.1,0,0,1,10.2-8.858c7.879-5.239,17.189-9.158,24.67-12.306,7.234-3.045,12.461-5.245,12.154-6.956-.24-1.354-3.895-2.35-11.844-3.23-7.986-.884-20.414-1.664-40.295-2.528-13.555-.59-27.2-.89-40.553-.89-29.4,0-53.963,1.4-76.131,2.916-3.545.243-7.02.488-10.086.7h-.008c-16.922,1.191-31.537,2.22-44.52,2.22-11.773,0-21.217-.846-29.717-2.663V683.319c35.191,27.069,150.443,115.83,156.088,121.473,1.42,1.42,12.3,7.944,28.781,17.818,14.7,8.809,34.83,20.874,56,34.01,25.088,15.565,46.168,29.219,64.445,41.744,22.895,15.689,40.928,29.346,53.6,40.593a138.238,138.238,0,0,1,16.7,17.089c4.17,5.315,6.443,9.846,6.758,13.469,1.084,12.492,3.193,33.272,5.637,57.333l.029.28c4.889,48.158,10.973,108.091,10.973,123.756,0,6.95-.285,16.8-.613,28.21-.77,26.685-1.729,59.9.613,71.616.76,3.793-.428,14.2-3.533,30.938-2.48,13.371-6.189,30.813-11.021,51.842-8.258,35.916-16.975,69.98-17.057,70.3l-.008,0a217.562,217.562,0,0,0-22.873,15.384,180.137,180.137,0,0,0-19.238,16.9,100.756,100.756,0,0,0-16.113,20.955c-6.221,11.2-4.287,27.157-2.416,42.592l0,.016c1,8.234,2.033,16.748,1.732,24.207a41.674,41.674,0,0,1-1.6,10.423,23.006,23.006,0,0,1-4.539,8.514c-4.965,5.771-13.078,8.745-24.8,9.09C-13205.625,1552.51-13225.354,1552.833-13242.59,1552.833Z" transform="translate(13461 -528)"/>
    <path id="Вычитание_3" data-name="Вычитание 3" class="cls-4" d="M-13221.842,1449.556a174.52,174.52,0,0,1-23.409-1.382,91.044,91.044,0,0,1-16.576-3.7c-9.312-3.089-15.655-7.252-22.37-11.659l0,0c-5.962-3.913-12.127-7.959-20.834-11.544a21.512,21.512,0,0,1-7.7-5.576,38.491,38.491,0,0,1-5.974-9.2c-3.247-6.756-5.779-15.514-7.743-26.775a327.641,327.641,0,0,1-3.756-33.8c-.8-11.9-1.263-24.078-1.707-35.853-.405-10.768-.789-20.938-1.407-30.227-1.053-15.78-5-25.423-12.412-30.349-6.795-4.514-15.854-4.837-26.344-5.211-9.454-.337-20.168-.718-31.13-4.372-8.164-2.721-16.691-7.558-25.348-14.376a170.66,170.66,0,0,1-22.7-22.021,270.835,270.835,0,0,1-18.641-24.2c-5.972-8.684-10.465-16.175-13.182-20.929-6.8-11.9,4.645-32.927,17.894-57.277,12.688-23.321,27.068-49.75,28.7-74.17.652-9.786-.813-16.45-4.481-20.371-2.646-2.829-6.414-4.2-11.52-4.2-10.356,0-24.828,5.759-40.15,11.856l0,0c-12.278,4.886-24.975,9.938-37.019,12.717a45.21,45.21,0,0,1-9.979,1.355c-4.309,0-7.281-1.1-9.088-3.372-1.99-2.5-2.624-6.484-1.993-12.532.58-5.545,2.134-12.293,3.933-20.108,3.756-16.312,8.43-36.612,7.141-58.518-.759-12.9-6.129-25.861-15.961-38.512-7.866-10.12-18.59-20.068-31.873-29.567a258.584,258.584,0,0,0-31.249-18.96c-8.324-4.289-14.037-6.668-14.091-6.69V734.089l1.813-2.59h625.67c58.878,18.663,89.039,29.051,89.646,30.875.858,2.576-3.711,74.373-7.7,134.15-4.354,65.315-8.9,129.8-8.942,130.406l-95.946,189.4-32.171,63.508c-.062.249-6.32,25.259-13.936,53.66-4.473,16.679-8.522,31.216-12.038,43.209-4.4,15.011-7.979,26.085-10.636,32.914a33.35,33.35,0,0,1-6.521,10.315,51.184,51.184,0,0,1-10.4,8.56c-7.7,4.9-17.747,9.046-29.872,12.323a244.172,244.172,0,0,1-37.67,6.708A385.783,385.783,0,0,1-13221.842,1449.556Z" transform="translate(13632 -632)"/>
    <path id="Вычитание_5" data-name="Вычитание 5" class="cls-5" d="M-13391.662,1037.737l-219.631-159.731,26.936-250.508h749.148a123.354,123.354,0,0,1-.723,29.471,247.964,247.964,0,0,1-6.933,33.4c-3.033,11.049-6.8,22.424-11.187,33.808-4.164,10.8-8.7,21.129-13.49,30.7a62.314,62.314,0,0,1-8.3,12.558,64.547,64.547,0,0,1-10.524,9.817,76.661,76.661,0,0,1-12.259,7.4,98.459,98.459,0,0,1-13.5,5.32,148.922,148.922,0,0,1-28.738,5.7A262.464,262.464,0,0,1-12968.63,797c-6.469,0-12.466-.163-17.758-.307h-.017c-4.193-.114-7.815-.213-10.921-.213a66.746,66.746,0,0,0-9.918.489c-2.341.374-3.715.987-4.455,1.987-1.411,1.9-.4,5.237,1.287,10.757a132.269,132.269,0,0,1,6.432,36.681c.688,18.623-2.26,32.7-9.279,44.309a71.409,71.409,0,0,1-11.4,14.075c-4.343,4.275-9.14,8.275-14.217,12.51l-.112.094c-2.144,1.788-4.359,3.636-6.593,5.551-4.941,4.236-8.54,6.209-11.324,6.209-4.052,0-6.192-4.108-9.154-9.794-3.956-7.594-9.374-17.994-22.784-24.7-3.97-1.985-7.39-2.992-10.164-2.992a8.268,8.268,0,0,0-6.26,2.543c-5.425,5.726-4.644,20.231-3.888,34.259v.006a165.508,165.508,0,0,1,.345,19.426,159,159,0,0,1-2.157,17.965,74.776,74.776,0,0,1-5.121,17.185,45.792,45.792,0,0,1-4.208,7.471,35.363,35.363,0,0,1-5.593,6.282,31.968,31.968,0,0,1-7.191,4.761,35.983,35.983,0,0,1-9,2.908c-13.275,2.489-27.183,5.018-38.357,7.05l-.083.015c-11.522,2.1-20.624,3.75-24.789,4.584l-186.352,21.63Z" transform="translate(14687 -528)"/>
    <path id="Вычитание_4" data-name="Вычитание 4" class="cls-6" d="M-13344.605,1280.112h-.021a203.885,203.885,0,0,1-40.334-4.287,287.881,287.881,0,0,1-40.53-11.575c-24.482-8.872-50.319-21.433-76.8-37.334-11.241-6.751-22.624-14.127-33.834-21.923-9.911-6.893-19.727-14.139-29.173-21.536-15.426-12.08-29.823-24.559-39.5-34.236a69.7,69.7,0,0,1-11.253-14.559,61.213,61.213,0,0,1-6.165-15.133,65.7,65.7,0,0,1-2.022-15.225,80.474,80.474,0,0,1,1.173-14.834,104.257,104.257,0,0,1,3.425-13.962c1.294-4.082,2.886-8.324,4.73-12.608,3.379-7.846,6.973-14.422,9.6-19.224l.087-.159.429-.784c8.725-15.994,46.75-61.307,67.179-85.651l.451-.538c2.814-3.355,5.245-6.252,7.245-8.651a31.463,31.463,0,0,0,4.615-6.92,9.821,9.821,0,0,0,1-5.31c-.558-4.385-4.986-7.568-11.117-11.973-6.157-4.426-13.82-9.933-21.121-19.059-8.833-11.04-10.373-27.414-4.577-48.668a174.218,174.218,0,0,1,10.191-27.142c3.587-7.726,7.855-15.808,12.687-24.022,3-5.1,5.118-15.3,6.288-30.293,1-12.769,1.321-29.191.967-48.812-.63-34.868-3.231-72.645-5.3-98.195h491.021c2.1,19.1,3.379,42.678,3.808,70.081.342,21.947.143,46.36-.592,72.561-1.248,44.515-3.658,79.519-3.683,79.86l0,.012c-.226,1.147-5.595,28.522-11.645,65.156-3.625,21.948-6.791,42.926-9.412,62.352-3.277,24.293-5.709,46.233-7.228,65.212a139.678,139.678,0,0,1-6.567,31.837,196.332,196.332,0,0,1-14.152,32.559,266.568,266.568,0,0,1-20.9,32.442,338.318,338.318,0,0,1-26.807,31.487,397.59,397.59,0,0,1-31.877,29.693,432.1,432.1,0,0,1-36.107,27.061,436.752,436.752,0,0,1-39.5,23.59,414.162,414.162,0,0,1-42.055,19.281,134.493,134.493,0,0,1-25.787,7.175A156.234,156.234,0,0,1-13344.605,1280.112Z" transform="translate(14183 -528)"/>
  </g>
</svg>
