<svg xmlns="http://www.w3.org/2000/svg" width="26" height="26" viewBox="0 0 26 26">
    <g data-name="Сгруппировать 404">
        <path data-name="linkedin (2)" d="M12.5 0A12.5 12.5 0 1 0 25 12.5 12.5 12.5 0 0 0 12.5 0z" transform="translate(.5 .5)" style="fill:none;stroke:#fff"/>
        <path data-name="linkedin (2)" d="M118.755 122.361h-3v-9.015h3zm-1.5-10.246h-.02a1.714 1.714 0 1 1 .02 0zm12.317 10.246h-3v-4.823c0-1.212-.434-2.039-1.52-2.039a1.642 1.642 0 0 0-1.539 1.1 2.05 2.05 0 0 0-.1.731v5.035h-3s.039-8.169 0-9.015h3v1.276a2.979 2.979 0 0 1 2.7-1.488c1.974 0 3.454 1.288 3.454 4.057zm0 0" transform="translate(-108.569 -103.685)" style="fill:#fff"/>
    </g>
</svg>
