<svg id="Слой_1" data-name="Слой 1" xmlns="http://www.w3.org/2000/svg" viewBox="0 0 70.31 70.31"><defs><style>.cls-1{fill:#f4c017;}.cls-2{fill:none;stroke:#1f335b;stroke-linecap:round;stroke-linejoin:round;stroke-width:3px;}</style></defs><circle class="cls-1" cx="35.15" cy="35.15" r="35.15"/><path class="cls-2" d="M135.61,9.83a12.65,12.65,0,0,1,10,10M135.61-.3a22.79,22.79,0,0,1,20.13,20.1m-19.24-28A30.69,30.69,0,0,1,163.41,19.1M153.2,40V47.6a5.06,5.06,0,0,1-5,5.09l-.48,0a50.22,50.22,0,0,1-21.85-7.77,49.51,49.51,0,0,1-15.19-15.2,50,50,0,0,1-7.77-21.95,5.07,5.07,0,0,1,4.59-5.5l.45,0h7.59a5.08,5.08,0,0,1,5.07,4.36,32.32,32.32,0,0,0,1.77,7.11A5.07,5.07,0,0,1,121.2,19L118,22.26a40.52,40.52,0,0,0,15.2,15.19l3.21-3.21a5.05,5.05,0,0,1,5.34-1.14,33,33,0,0,0,7.12,1.77A5.06,5.06,0,0,1,153.2,40Z" transform="translate(-97.85 12.26)"/></svg>