<svg xmlns="http://www.w3.org/2000/svg" width="51.221" height="50.598" viewBox="0 0 51.221 50.598">
    <g data-name="Group 129" transform="translate(-4.5 -12)">
        <path data-name="Контур 8610" d="m166 178.331 7.831-7.831" transform="translate(-136.095 -133.551)" style="stroke-linecap:round;fill:none;stroke:#f5c119;stroke-width:2px"/>
        <path data-name="Контур 8611" d="m210 221.179 7.6-7.679" transform="translate(-173.405 -170.013)" style="stroke-linecap:round;fill:none;stroke:#f5c119;stroke-width:2px"/>
        <path data-name="Контур 8612" d="m226.5 231.965 10 11.672a3.194 3.194 0 0 0 4.685.181h0a3.194 3.194 0 0 0-.166-4.672L229.313 229" transform="translate(-187.396 -183.156)" style="stroke-linecap:round;fill:none;stroke:#f5c119;stroke-width:2px"/>
        <path data-name="Контур 8613" d="m10 35 18.892-19.213a5.018 5.018 0 0 1 7.114-.042L55.389 35" transform="translate(-3.816 -1.092)" style="stroke-linecap:round;fill:none;stroke:#f5c119;stroke-width:2px"/>
        <path data-name="Контур 8614" d="M221 20.679v-5.246A2.433 2.433 0 0 1 223.433 13h2.509a2.433 2.433 0 0 1 2.433 2.433v12.62m2.357 2.509v8.819" transform="translate(-182.732)" style="stroke-linecap:round;fill:none;stroke:#f5c119;stroke-width:2px"/>
        <path data-name="Контур 8615" d="M30.5 129.5v23.493" transform="translate(-21.199 -98.786)" style="stroke-linecap:round;fill:none;stroke:#f5c119;stroke-width:2px"/>
        <path data-name="Контур 8616" d="M5.5 285h20.756" transform="translate(0 -230.641)" style="stroke-linecap:round;fill:none;stroke:#f5c119;stroke-width:2px"/>
        <path data-name="Контур 8617" d="M122.393 172h-9.656a2.737 2.737 0 0 0-2.737 2.737v14.293" transform="translate(-88.61 -134.823)" style="stroke-linecap:round;fill:none;stroke:#f5c119;stroke-width:2px"/>
        <path data-name="Контур 8618" d="M151.39 309.105h-15.282a.608.608 0 0 1-.608-.608v-1.216a2.281 2.281 0 0 1 2.281-2.281h11.936a2.281 2.281 0 0 1 2.283 2.281v1.219a.608.608 0 0 1-.61.605z" transform="translate(-110.233 -247.6)" style="stroke-linecap:round;fill:none;stroke:#f5c119;stroke-width:2px"/>
        <rect data-name="Прямоугольник 432" width="2.647" height="12.112" rx="1.324" transform="rotate(-45.17 61.776 -26.356)" style="fill:none;stroke:#f5c119;stroke-width:2px"/>
        <rect data-name="Прямоугольник 433" width="2.647" height="12.112" rx="1.324" transform="rotate(-45.17 68.607 -9.788)" style="fill:none;stroke:#f5c119;stroke-width:2px"/>
    </g>
</svg>
