<svg xmlns="http://www.w3.org/2000/svg" width="50.478" height="55.123" viewBox="0 0 50.478 55.123">
    <g data-name="Group 131" transform="translate(-.5 -1)">
        <path data-name="Контур 8623" d="m52 68.5 6.37 6.37" transform="translate(-28.316 -37.288)" style="fill:none;stroke:#f5c119;stroke-width:2px"/>
        <path data-name="Контур 8624" d="m57 64 6.37 6.15" transform="translate(-31.12 -34.765)" style="fill:none;stroke:#f5c119;stroke-width:2px"/>
        <path data-name="Контур 8625" d="m67.106 79.525.961-.961A2.2 2.2 0 0 1 71.1 78.5l14.139 12.955a3.591 3.591 0 1 1-5.039 5.106L67.059 82.582a2.2 2.2 0 0 1 .047-3.057z" transform="translate(-36.426 -42.57)" style="fill:none;stroke:#f5c119;stroke-width:2px"/>
        <path data-name="Контур 8626" d="M59 2h20.426a2.636 2.636 0 0 1 2.636 2.636v34.7" transform="translate(-32.241)" style="stroke-linecap:round;fill:none;stroke:#f5c119;stroke-width:2px"/>
        <path data-name="Контур 8627" d="M74.5 20h10.543" transform="translate(-40.933 -10.093)" style="stroke-linecap:round;fill:none;stroke:#f5c119;stroke-width:2px"/>
        <path data-name="Контур 8628" d="M44 93v10.543" transform="translate(-23.831 -51.026)" style="stroke-linecap:round;fill:none;stroke:#f5c119;stroke-width:2px"/>
        <path data-name="Контур 8629" d="M37 105v5.271" transform="translate(-19.906 -57.754)" style="stroke-linecap:round;fill:none;stroke:#f5c119;stroke-width:2px"/>
        <path data-name="Контур 8630" d="M30 100v7.468" transform="translate(-15.981 -54.951)" style="stroke-linecap:round;fill:none;stroke:#f5c119;stroke-width:2px"/>
        <path data-name="Контур 8631" d="M23 104v5.711" transform="translate(-12.056 -57.194)" style="stroke-linecap:round;fill:none;stroke:#f5c119;stroke-width:2px"/>
        <path data-name="Контур 8632" d="M16 99v7.907" transform="translate(-8.13 -54.39)" style="stroke-linecap:round;fill:none;stroke:#f5c119;stroke-width:2px"/>
        <path data-name="Контур 8633" d="M9 105v5.271" transform="translate(-4.205 -57.754)" style="stroke-linecap:round;fill:none;stroke:#f5c119;stroke-width:2px"/>
        <path data-name="Контур 8634" d="M2 111v2.636" transform="translate(-.28 -61.119)" style="stroke-linecap:round;fill:none;stroke:#f5c119;stroke-width:2px"/>
        <path data-name="Контур 8635" d="M75 42h10.543" transform="translate(-41.213 -22.429)" style="stroke-linecap:round;fill:none;stroke:#f5c119;stroke-width:2px"/>
        <path data-name="Контур 8636" d="M50.333 49.3h5.052M22 39.636l3.423 3.423a.439.439 0 0 0 .621 0L32.1 37" transform="translate(-11.495 -19.625)" style="stroke-linecap:round;fill:none;stroke:#f5c119;stroke-width:2px"/>
        <path data-name="Контур 8637" d="M73 31h12.3" transform="translate(-40.092 -16.261)" style="stroke-linecap:round;fill:none;stroke:#f5c119;stroke-width:2px"/>
        <path data-name="Контур 8638" d="M26.34 23.761a.7.7 0 0 0-.007.821 9.88 9.88 0 1 1-2.64-2.6.693.693 0 0 0 .993-.221.627.627 0 0 0-.185-.824 11.2 11.2 0 1 0 2.865 2.821.633.633 0 0 0-1.026 0z" transform="translate(-3.084 -9.532)" style="fill:#f5c119;fill-rule:evenodd"/>
        <circle data-name="Эллипс 268" cx="13.618" cy="13.618" r="13.618" transform="translate(1.5 7.052)" style="fill:none;stroke:#f5c119;stroke-width:2px"/>
    </g>
</svg>
