<svg xmlns="http://www.w3.org/2000/svg" width="40.266" height="57.314" viewBox="0 0 40.266 57.314">
    <g data-name="Group 130" transform="translate(-4.5 -4)">
        <path data-name="Контур 8619" d="M25.5 28.194v13.691a1.55 1.55 0 0 0 .83 1.372L41 50.959l14.3-7.7a1.55 1.55 0 0 0 .815-1.365v-13.7a.194.194 0 0 0-.196-.194H25.694a.194.194 0 0 0-.194.194z" transform="translate(-16.125 -18.544)" style="stroke-linecap:round;fill:none;stroke:#f5c119;stroke-width:2px"/>
        <path data-name="Контур 8620" d="M9.375 19.337H8.019A2.519 2.519 0 0 1 5.5 16.819V6.938A1.937 1.937 0 0 1 7.438 5h34.39a1.937 1.937 0 0 1 1.937 1.938v9.881a2.519 2.519 0 0 1-2.519 2.519h-.969M15.478 9.65v17.534" style="stroke-linecap:round;fill:none;stroke:#f5c119;stroke-width:2px"/>
        <path data-name="Контур 8621" d="M152 29v17.728" transform="translate(-118.116 -19.35)" style="stroke-linecap:round;fill:none;stroke:#f5c119;stroke-width:2px"/>
        <circle data-name="Эллипс 267" cx="2.034" cy="2.034" r="2.034" transform="translate(22.744 32.609)" style="fill:none;stroke:#f5c119;stroke-width:2px"/>
        <path data-name="Контур 8622" d="m53.508 169.983 2.353 7.241a2.228 2.228 0 0 0 2.119 1.54h7.613a.14.14 0 0 1 .045.006.043.043 0 0 1 .013.007.114.114 0 0 1 .034.054.112.112 0 0 1 0 .064.041.041 0 0 1-.006.014.145.145 0 0 1-.033.031l-6.159 4.475a2.228 2.228 0 0 0-.809 2.491l2.353 7.241a.138.138 0 0 1 .009.044.046.046 0 0 1 0 .008.03.03 0 0 1 0 .007.112.112 0 0 1-.041.049.114.114 0 0 1-.059.024h-.015a.134.134 0 0 1-.04-.022l-6.159-4.475a2.228 2.228 0 0 0-2.619 0l-6.159 4.475a.134.134 0 0 1-.04.022h-.015a.131.131 0 0 1-.1-.073.043.043 0 0 1 0-.015.138.138 0 0 1 .008-.044l2.349-7.247a2.228 2.228 0 0 0-.809-2.491l-6.159-4.475a.14.14 0 0 1-.033-.031.044.044 0 0 1-.007-.014.13.13 0 0 1 .038-.118.045.045 0 0 1 .013-.007.141.141 0 0 1 .045-.006h7.613a2.228 2.228 0 0 0 2.119-1.54l2.353-7.241a.138.138 0 0 1 .019-.041.039.039 0 0 1 .011-.01.129.129 0 0 1 .124 0 .039.039 0 0 1 .011.01.138.138 0 0 1 .02.047z" transform="translate(-28.734 -132.964)" style="fill:none;stroke:#f5c119;stroke-width:2px"/>
    </g>
</svg>
