<svg xmlns="http://www.w3.org/2000/svg" width="26" height="26" viewBox="0 0 26 26">
    <g data-name="Whatsapp (1)">
        <path data-name="Контур 7280" d="M12.5 25A12.5 12.5 0 1 0 0 12.5 12.5 12.5 0 0 0 12.5 25z" style="fill:none;stroke:#fff" transform="translate(.5 .5)"/>
        <path data-name="Исключение 2" d="m0 13.965.978-3.468a6.967 6.967 0 1 1 2.6 2.549L0 13.965zM4.55 3.7a.545.545 0 0 0-.358.133 2.069 2.069 0 0 0-.678 1.038 3.146 3.146 0 0 0 .729 2.466A7.381 7.381 0 0 0 8.2 10.209a2.318 2.318 0 0 0 .628.092 1.843 1.843 0 0 0 1-.294 1.472 1.472 0 0 0 .636-.927l.072-.337a.232.232 0 0 0-.131-.261l-1.529-.7a.229.229 0 0 0-.1-.021.232.232 0 0 0-.187.092L8 8.625a.173.173 0 0 1-.137.068.168.168 0 0 1-.057-.01A4.732 4.732 0 0 1 5.26 6.508a.171.171 0 0 1 .023-.193l.574-.664a.236.236 0 0 0 .037-.246l-.658-1.54a.238.238 0 0 0-.2-.143L4.58 3.7z" transform="translate(6.285 5.896)" style="fill:#fff"/>
    </g>
</svg>
