<svg xmlns="http://www.w3.org/2000/svg" width="26" height="26" viewBox="0 0 26 26">
    <path data-name="Контур 7279" d="M12.5 0A12.5 12.5 0 1 0 25 12.5 12.5 12.5 0 0 0 12.5 0z" style="fill:none;stroke:#fff" transform="translate(.5 .5)"/>
    <g data-name="Сгруппировать 405">
        <path data-name="Исключение 1" d="M7.637 10.694c-.012 0-1.207 0-2.535-.041a42.042 42.042 0 0 1-2-.1 8.869 8.869 0 0 1-1.443-.189A1.914 1.914 0 0 1 .315 9.021a7.6 7.6 0 0 1-.182-1.073C.094 7.594.062 7.188.039 6.74 0 5.979 0 5.353 0 5.347s0-.629.039-1.389c.023-.447.054-.853.093-1.207a7.752 7.752 0 0 1 .183-1.078 1.938 1.938 0 0 1 .5-.859 1.914 1.914 0 0 1 .848-.5A9.07 9.07 0 0 1 3.1.133a48.65 48.65 0 0 1 2-.094C6.426 0 7.625 0 7.637 0s1.211 0 2.54.041c.781.024 1.453.056 2 .1a8.745 8.745 0 0 1 1.438.189 1.914 1.914 0 0 1 1.346 1.346 7.337 7.337 0 0 1 .187 1.08c.04.355.071.763.093 1.211.037.751.035 1.369.035 1.395 0 .006 0 .629-.039 1.389-.023.447-.054.853-.093 1.207a7.754 7.754 0 0 1-.182 1.078 1.914 1.914 0 0 1-1.346 1.346 9.073 9.073 0 0 1-1.438.182c-.545.039-1.218.071-2 .093-1.331.036-2.529.037-2.541.037zM6.115 3.057v4.58l3.975-2.29-3.975-2.29z" transform="translate(5.363 7.653)" style="fill:#fff"/>
    </g>
</svg>
